<?xml version="1.0" encoding="UTF-8" standalone="no"?>
<!DOCTYPE svg PUBLIC "-//W3C//DTD SVG 1.1//EN"
 "http://www.w3.org/Graphics/SVG/1.1/DTD/svg11.dtd">
<!-- Generated by graphviz version 2.43.0 (0)
 -->
<!-- Title: snakemake_dag Pages: 1 -->
<svg width="501pt" height="620pt"
 viewBox="0.00 0.00 500.60 620.00" xmlns="http://www.w3.org/2000/svg" xmlns:xlink="http://www.w3.org/1999/xlink">
<g id="graph0" class="graph" transform="scale(1 1) rotate(0) translate(4 616)">
<title>snakemake_dag</title>
<polygon fill="white" stroke="transparent" points="-4,4 -4,-616 496.6,-616 496.6,4 -4,4"/>
<!-- 0 -->
<g id="node1" class="node">
<title>0</title>
<path fill="none" stroke="#56d892" stroke-width="2" d="M142,-36C142,-36 112,-36 112,-36 106,-36 100,-30 100,-24 100,-24 100,-12 100,-12 100,-6 106,0 112,0 112,0 142,0 142,0 148,0 154,-6 154,-12 154,-12 154,-24 154,-24 154,-30 148,-36 142,-36"/>
<text text-anchor="middle" x="127" y="-15.5" font-family="sans" font-size="10.00">all</text>
</g>
<!-- 1 -->
<g id="node2" class="node">
<title>1</title>
<path fill="none" stroke="#8fd856" stroke-width="2" d="M185,-324C185,-324 117,-324 117,-324 111,-324 105,-318 105,-312 105,-312 105,-300 105,-300 105,-294 111,-288 117,-288 117,-288 185,-288 185,-288 191,-288 197,-294 197,-300 197,-300 197,-312 197,-312 197,-318 191,-324 185,-324"/>
<text text-anchor="middle" x="151" y="-303.5" font-family="sans" font-size="10.00">flag_sort_depth</text>
</g>
<!-- 1&#45;&gt;0 -->
<g id="edge1" class="edge">
<title>1&#45;&gt;0</title>
<path fill="none" stroke="grey" stroke-width="2" d="M138.46,-287.9C122.38,-264.79 95.33,-221.69 85,-180 80.54,-161.98 83.73,-84.15 88,-72 91.52,-61.98 97.63,-52.24 103.99,-43.91"/>
<polygon fill="grey" stroke="grey" stroke-width="2" points="106.75,-46.05 110.33,-36.08 101.32,-41.64 106.75,-46.05"/>
</g>
<!-- 8 -->
<g id="node9" class="node">
<title>8</title>
<path fill="none" stroke="#567bd8" stroke-width="2" d="M195.5,-180C195.5,-180 106.5,-180 106.5,-180 100.5,-180 94.5,-174 94.5,-168 94.5,-168 94.5,-156 94.5,-156 94.5,-150 100.5,-144 106.5,-144 106.5,-144 195.5,-144 195.5,-144 201.5,-144 207.5,-150 207.5,-156 207.5,-156 207.5,-168 207.5,-168 207.5,-174 201.5,-180 195.5,-180"/>
<text text-anchor="middle" x="151" y="-159.5" font-family="sans" font-size="10.00">hisat_table_sncRNA</text>
</g>
<!-- 1&#45;&gt;8 -->
<g id="edge13" class="edge">
<title>1&#45;&gt;8</title>
<path fill="none" stroke="grey" stroke-width="2" d="M151,-287.87C151,-263.67 151,-219.21 151,-190.39"/>
<polygon fill="grey" stroke="grey" stroke-width="2" points="154.5,-190.19 151,-180.19 147.5,-190.19 154.5,-190.19"/>
</g>
<!-- 11 -->
<g id="node12" class="node">
<title>11</title>
<path fill="none" stroke="#68d856" stroke-width="2" d="M323.5,-252C323.5,-252 240.5,-252 240.5,-252 234.5,-252 228.5,-246 228.5,-240 228.5,-240 228.5,-228 228.5,-228 228.5,-222 234.5,-216 240.5,-216 240.5,-216 323.5,-216 323.5,-216 329.5,-216 335.5,-222 335.5,-228 335.5,-228 335.5,-240 335.5,-240 335.5,-246 329.5,-252 323.5,-252"/>
<text text-anchor="middle" x="282" y="-231.5" font-family="sans" font-size="10.00">hisat2_3n_filtering</text>
</g>
<!-- 1&#45;&gt;11 -->
<g id="edge16" class="edge">
<title>1&#45;&gt;11</title>
<path fill="none" stroke="grey" stroke-width="2" d="M183.05,-287.88C200.49,-278.55 222.27,-266.92 240.94,-256.94"/>
<polygon fill="grey" stroke="grey" stroke-width="2" points="242.66,-259.99 249.83,-252.19 239.36,-253.82 242.66,-259.99"/>
</g>
<!-- 2 -->
<g id="node3" class="node">
<title>2</title>
<path fill="none" stroke="#56d0d8" stroke-width="2" d="M166,-396C166,-396 136,-396 136,-396 130,-396 124,-390 124,-384 124,-384 124,-372 124,-372 124,-366 130,-360 136,-360 136,-360 166,-360 166,-360 172,-360 178,-366 178,-372 178,-372 178,-384 178,-384 178,-390 172,-396 166,-396"/>
<text text-anchor="middle" x="151" y="-375.5" font-family="sans" font-size="10.00">merge</text>
</g>
<!-- 2&#45;&gt;1 -->
<g id="edge7" class="edge">
<title>2&#45;&gt;1</title>
<path fill="none" stroke="grey" stroke-width="2" d="M151,-359.7C151,-351.98 151,-342.71 151,-334.11"/>
<polygon fill="grey" stroke="grey" stroke-width="2" points="154.5,-334.1 151,-324.1 147.5,-334.1 154.5,-334.1"/>
</g>
<!-- 3 -->
<g id="node4" class="node">
<title>3</title>
<path fill="none" stroke="#56d86b" stroke-width="2" d="M170,-468C170,-468 132,-468 132,-468 126,-468 120,-462 120,-456 120,-456 120,-444 120,-444 120,-438 126,-432 132,-432 132,-432 170,-432 170,-432 176,-432 182,-438 182,-444 182,-444 182,-456 182,-456 182,-462 176,-468 170,-468"/>
<text text-anchor="middle" x="151" y="-447.5" font-family="sans" font-size="10.00">sort_sam</text>
</g>
<!-- 3&#45;&gt;2 -->
<g id="edge8" class="edge">
<title>3&#45;&gt;2</title>
<path fill="none" stroke="grey" stroke-width="2" d="M151,-431.7C151,-423.98 151,-414.71 151,-406.11"/>
<polygon fill="grey" stroke="grey" stroke-width="2" points="154.5,-406.1 151,-396.1 147.5,-406.1 154.5,-406.1"/>
</g>
<!-- 4 -->
<g id="node5" class="node">
<title>4</title>
<path fill="none" stroke="#56d8b9" stroke-width="2" d="M107.5,-540C107.5,-540 50.5,-540 50.5,-540 44.5,-540 38.5,-534 38.5,-528 38.5,-528 38.5,-516 38.5,-516 38.5,-510 44.5,-504 50.5,-504 50.5,-504 107.5,-504 107.5,-504 113.5,-504 119.5,-510 119.5,-516 119.5,-516 119.5,-528 119.5,-528 119.5,-534 113.5,-540 107.5,-540"/>
<text text-anchor="middle" x="79" y="-519.5" font-family="sans" font-size="10.00">map_sncRNA</text>
</g>
<!-- 4&#45;&gt;0 -->
<g id="edge5" class="edge">
<title>4&#45;&gt;0</title>
<path fill="none" stroke="grey" stroke-width="2" d="M61.86,-503.89C38.62,-478.8 0,-429.5 0,-379 0,-379 0,-379 0,-161 0,-106.04 53.51,-62.6 91.07,-38.88"/>
<polygon fill="grey" stroke="grey" stroke-width="2" points="93.05,-41.77 99.76,-33.56 89.4,-35.8 93.05,-41.77"/>
</g>
<!-- 4&#45;&gt;3 -->
<g id="edge9" class="edge">
<title>4&#45;&gt;3</title>
<path fill="none" stroke="grey" stroke-width="2" d="M96.8,-503.7C105.6,-495.14 116.38,-484.66 126,-475.3"/>
<polygon fill="grey" stroke="grey" stroke-width="2" points="128.68,-477.58 133.41,-468.1 123.8,-472.57 128.68,-477.58"/>
</g>
<!-- 5 -->
<g id="node6" class="node">
<title>5</title>
<path fill="none" stroke="#d85656" stroke-width="2" d="M107,-612C107,-612 51,-612 51,-612 45,-612 39,-606 39,-600 39,-600 39,-588 39,-588 39,-582 45,-576 51,-576 51,-576 107,-576 107,-576 113,-576 119,-582 119,-588 119,-588 119,-600 119,-600 119,-606 113,-612 107,-612"/>
<text text-anchor="middle" x="79" y="-597" font-family="sans" font-size="10.00">trim</text>
<text text-anchor="middle" x="79" y="-586" font-family="sans" font-size="10.00">sample: XY&#45;1</text>
</g>
<!-- 5&#45;&gt;4 -->
<g id="edge11" class="edge">
<title>5&#45;&gt;4</title>
<path fill="none" stroke="grey" stroke-width="2" d="M79,-575.7C79,-567.98 79,-558.71 79,-550.11"/>
<polygon fill="grey" stroke="grey" stroke-width="2" points="82.5,-550.1 79,-540.1 75.5,-550.1 82.5,-550.1"/>
</g>
<!-- 6 -->
<g id="node7" class="node">
<title>6</title>
<path fill="none" stroke="#d8cb56" stroke-width="2" d="M259,-540C259,-540 185,-540 185,-540 179,-540 173,-534 173,-528 173,-528 173,-516 173,-516 173,-510 179,-504 185,-504 185,-504 259,-504 259,-504 265,-504 271,-510 271,-516 271,-516 271,-528 271,-528 271,-534 265,-540 259,-540"/>
<text text-anchor="middle" x="222" y="-519.5" font-family="sans" font-size="10.00">map_sncRNA_SE</text>
</g>
<!-- 6&#45;&gt;0 -->
<g id="edge6" class="edge">
<title>6&#45;&gt;0</title>
<path fill="none" stroke="grey" stroke-width="2" d="M271.16,-516.92C348.52,-507.52 490,-476.94 490,-379 490,-379 490,-379 490,-161 490,-120.55 500.41,-99.77 471,-72 427.32,-30.76 243.99,-21.61 164.28,-19.58"/>
<polygon fill="grey" stroke="grey" stroke-width="2" points="164.27,-16.08 154.19,-19.35 164.11,-23.08 164.27,-16.08"/>
</g>
<!-- 6&#45;&gt;3 -->
<g id="edge10" class="edge">
<title>6&#45;&gt;3</title>
<path fill="none" stroke="grey" stroke-width="2" d="M204.45,-503.7C195.77,-495.14 185.14,-484.66 175.65,-475.3"/>
<polygon fill="grey" stroke="grey" stroke-width="2" points="177.93,-472.63 168.35,-468.1 173.01,-477.62 177.93,-472.63"/>
</g>
<!-- 7 -->
<g id="node8" class="node">
<title>7</title>
<path fill="none" stroke="#b6d856" stroke-width="2" d="M250,-612C250,-612 194,-612 194,-612 188,-612 182,-606 182,-600 182,-600 182,-588 182,-588 182,-582 188,-576 194,-576 194,-576 250,-576 250,-576 256,-576 262,-582 262,-588 262,-588 262,-600 262,-600 262,-606 256,-612 250,-612"/>
<text text-anchor="middle" x="222" y="-597" font-family="sans" font-size="10.00">trim_SE</text>
<text text-anchor="middle" x="222" y="-586" font-family="sans" font-size="10.00">sample: XY&#45;1</text>
</g>
<!-- 7&#45;&gt;6 -->
<g id="edge12" class="edge">
<title>7&#45;&gt;6</title>
<path fill="none" stroke="grey" stroke-width="2" d="M222,-575.7C222,-567.98 222,-558.71 222,-550.11"/>
<polygon fill="grey" stroke="grey" stroke-width="2" points="225.5,-550.1 222,-540.1 218.5,-550.1 225.5,-550.1"/>
</g>
<!-- 8&#45;&gt;0 -->
<g id="edge2" class="edge">
<title>8&#45;&gt;0</title>
<path fill="none" stroke="grey" stroke-width="2" d="M124.88,-143.82C113.42,-134.69 101.19,-122.39 95,-108 86.04,-87.19 96.03,-62.97 107.15,-45.05"/>
<polygon fill="grey" stroke="grey" stroke-width="2" points="110.34,-46.57 112.97,-36.3 104.52,-42.69 110.34,-46.57"/>
</g>
<!-- 12 -->
<g id="node13" class="node">
<title>12</title>
<path fill="none" stroke="#d8a456" stroke-width="2" d="M242,-108C242,-108 116,-108 116,-108 110,-108 104,-102 104,-96 104,-96 104,-84 104,-84 104,-78 110,-72 116,-72 116,-72 242,-72 242,-72 248,-72 254,-78 254,-84 254,-84 254,-96 254,-96 254,-102 248,-108 242,-108"/>
<text text-anchor="middle" x="179" y="-87.5" font-family="sans" font-size="10.00">calculate_methylation_rate</text>
</g>
<!-- 8&#45;&gt;12 -->
<g id="edge17" class="edge">
<title>8&#45;&gt;12</title>
<path fill="none" stroke="grey" stroke-width="2" d="M157.92,-143.7C161.07,-135.81 164.88,-126.3 168.38,-117.55"/>
<polygon fill="grey" stroke="grey" stroke-width="2" points="171.69,-118.69 172.16,-108.1 165.19,-116.09 171.69,-118.69"/>
</g>
<!-- 9 -->
<g id="node10" class="node">
<title>9</title>
<path fill="none" stroke="#d87d56" stroke-width="2" d="M450,-108C450,-108 284,-108 284,-108 278,-108 272,-102 272,-96 272,-96 272,-84 272,-84 272,-78 278,-72 284,-72 284,-72 450,-72 450,-72 456,-72 462,-78 462,-84 462,-84 462,-96 462,-96 462,-102 456,-108 450,-108"/>
<text text-anchor="middle" x="367" y="-87.5" font-family="sans" font-size="10.00">calculate_methylation_rate_filtered</text>
</g>
<!-- 9&#45;&gt;0 -->
<g id="edge3" class="edge">
<title>9&#45;&gt;0</title>
<path fill="none" stroke="grey" stroke-width="2" d="M308.6,-71.97C263.51,-58.81 202.5,-41.02 163.95,-29.78"/>
<polygon fill="grey" stroke="grey" stroke-width="2" points="164.75,-26.37 154.17,-26.93 162.79,-33.09 164.75,-26.37"/>
</g>
<!-- 10 -->
<g id="node11" class="node">
<title>10</title>
<path fill="none" stroke="#56a9d8" stroke-width="2" d="M399.5,-180C399.5,-180 270.5,-180 270.5,-180 264.5,-180 258.5,-174 258.5,-168 258.5,-168 258.5,-156 258.5,-156 258.5,-150 264.5,-144 270.5,-144 270.5,-144 399.5,-144 399.5,-144 405.5,-144 411.5,-150 411.5,-156 411.5,-156 411.5,-168 411.5,-168 411.5,-174 405.5,-180 399.5,-180"/>
<text text-anchor="middle" x="335" y="-159.5" font-family="sans" font-size="10.00">hisat_table_filtered_sncRNA</text>
</g>
<!-- 10&#45;&gt;9 -->
<g id="edge14" class="edge">
<title>10&#45;&gt;9</title>
<path fill="none" stroke="grey" stroke-width="2" d="M342.91,-143.7C346.55,-135.73 350.95,-126.1 354.99,-117.26"/>
<polygon fill="grey" stroke="grey" stroke-width="2" points="358.21,-118.65 359.18,-108.1 351.84,-115.74 358.21,-118.65"/>
</g>
<!-- 11&#45;&gt;10 -->
<g id="edge15" class="edge">
<title>11&#45;&gt;10</title>
<path fill="none" stroke="grey" stroke-width="2" d="M295.1,-215.7C301.39,-207.39 309.05,-197.28 315.96,-188.14"/>
<polygon fill="grey" stroke="grey" stroke-width="2" points="318.8,-190.19 322.05,-180.1 313.22,-185.96 318.8,-190.19"/>
</g>
<!-- 12&#45;&gt;0 -->
<g id="edge4" class="edge">
<title>12&#45;&gt;0</title>
<path fill="none" stroke="grey" stroke-width="2" d="M166.15,-71.7C159.97,-63.39 152.46,-53.28 145.68,-44.14"/>
<polygon fill="grey" stroke="grey" stroke-width="2" points="148.48,-42.04 139.71,-36.1 142.86,-46.22 148.48,-42.04"/>
</g>
</g>
</svg>
