<?xml version="1.0" encoding="UTF-8" standalone="no"?>
<!DOCTYPE svg PUBLIC "-//W3C//DTD SVG 1.1//EN"
 "http://www.w3.org/Graphics/SVG/1.1/DTD/svg11.dtd">
<!-- Generated by graphviz version 2.40.1 (0)
 -->
<!-- Title: snakemake_dag Pages: 1 -->
<svg width="501pt" height="620pt"
 viewBox="0.00 0.00 500.66 620.00" xmlns="http://www.w3.org/2000/svg" xmlns:xlink="http://www.w3.org/1999/xlink">
<g id="graph0" class="graph" transform="scale(1 1) rotate(0) translate(4 616)">
<title>snakemake_dag</title>
<polygon fill="#ffffff" stroke="transparent" points="-4,4 -4,-616 496.6636,-616 496.6636,4 -4,4"/>
<!-- 0 -->
<g id="node1" class="node">
<title>0</title>
<path fill="none" stroke="#56a2d8" stroke-width="2" d="M142,-36C142,-36 112,-36 112,-36 106,-36 100,-30 100,-24 100,-24 100,-12 100,-12 100,-6 106,0 112,0 112,0 142,0 142,0 148,0 154,-6 154,-12 154,-12 154,-24 154,-24 154,-30 148,-36 142,-36"/>
<text text-anchor="middle" x="127" y="-15.5" font-family="sans" font-size="10.00" fill="#000000">all</text>
</g>
<!-- 1 -->
<g id="node2" class="node">
<title>1</title>
<path fill="none" stroke="#d8a456" stroke-width="2" d="M183,-324C183,-324 115,-324 115,-324 109,-324 103,-318 103,-312 103,-312 103,-300 103,-300 103,-294 109,-288 115,-288 115,-288 183,-288 183,-288 189,-288 195,-294 195,-300 195,-300 195,-312 195,-312 195,-318 189,-324 183,-324"/>
<text text-anchor="middle" x="149" y="-303.5" font-family="sans" font-size="10.00" fill="#000000">flag_sort_depth</text>
</g>
<!-- 1&#45;&gt;0 -->
<g id="edge1" class="edge">
<title>1&#45;&gt;0</title>
<path fill="none" stroke="#c0c0c0" stroke-width="2" d="M135.9042,-287.936C119.7595,-264.4414 93.2071,-221.4839 83,-180 78.2077,-160.5231 83.6215,-81.3563 87,-72 90.5662,-62.124 96.5687,-52.5178 102.8538,-44.2124"/>
<polygon fill="#c0c0c0" stroke="#c0c0c0" stroke-width="2" points="105.6141,-46.365 109.1533,-36.3788 100.1591,-41.9783 105.6141,-46.365"/>
</g>
<!-- 9 -->
<g id="node10" class="node">
<title>9</title>
<path fill="none" stroke="#9fd856" stroke-width="2" d="M193.5,-180C193.5,-180 104.5,-180 104.5,-180 98.5,-180 92.5,-174 92.5,-168 92.5,-168 92.5,-156 92.5,-156 92.5,-150 98.5,-144 104.5,-144 104.5,-144 193.5,-144 193.5,-144 199.5,-144 205.5,-150 205.5,-156 205.5,-156 205.5,-168 205.5,-168 205.5,-174 199.5,-180 193.5,-180"/>
<text text-anchor="middle" x="149" y="-159.5" font-family="sans" font-size="10.00" fill="#000000">hisat_table_sncRNA</text>
</g>
<!-- 1&#45;&gt;9 -->
<g id="edge14" class="edge">
<title>1&#45;&gt;9</title>
<path fill="none" stroke="#c0c0c0" stroke-width="2" d="M149,-287.7623C149,-263.201 149,-219.2474 149,-190.3541"/>
<polygon fill="#c0c0c0" stroke="#c0c0c0" stroke-width="2" points="152.5001,-190.0896 149,-180.0896 145.5001,-190.0897 152.5001,-190.0896"/>
</g>
<!-- 12 -->
<g id="node13" class="node">
<title>12</title>
<path fill="none" stroke="#567bd8" stroke-width="2" d="M320.5,-252C320.5,-252 237.5,-252 237.5,-252 231.5,-252 225.5,-246 225.5,-240 225.5,-240 225.5,-228 225.5,-228 225.5,-222 231.5,-216 237.5,-216 237.5,-216 320.5,-216 320.5,-216 326.5,-216 332.5,-222 332.5,-228 332.5,-228 332.5,-240 332.5,-240 332.5,-246 326.5,-252 320.5,-252"/>
<text text-anchor="middle" x="279" y="-231.5" font-family="sans" font-size="10.00" fill="#000000">hisat2_3n_filtering</text>
</g>
<!-- 1&#45;&gt;12 -->
<g id="edge17" class="edge">
<title>1&#45;&gt;12</title>
<path fill="none" stroke="#c0c0c0" stroke-width="2" d="M181.8045,-287.8314C198.5862,-278.5368 219.1985,-267.1208 237.1163,-257.1971"/>
<polygon fill="#c0c0c0" stroke="#c0c0c0" stroke-width="2" points="239.1538,-260.0696 246.206,-252.1628 235.7623,-253.9461 239.1538,-260.0696"/>
</g>
<!-- 2 -->
<g id="node3" class="node">
<title>2</title>
<path fill="none" stroke="#56c9d8" stroke-width="2" d="M164,-396C164,-396 134,-396 134,-396 128,-396 122,-390 122,-384 122,-384 122,-372 122,-372 122,-366 128,-360 134,-360 134,-360 164,-360 164,-360 170,-360 176,-366 176,-372 176,-372 176,-384 176,-384 176,-390 170,-396 164,-396"/>
<text text-anchor="middle" x="149" y="-375.5" font-family="sans" font-size="10.00" fill="#000000">merge</text>
</g>
<!-- 2&#45;&gt;1 -->
<g id="edge7" class="edge">
<title>2&#45;&gt;1</title>
<path fill="none" stroke="#c0c0c0" stroke-width="2" d="M149,-359.8314C149,-352.131 149,-342.9743 149,-334.4166"/>
<polygon fill="#c0c0c0" stroke="#c0c0c0" stroke-width="2" points="152.5001,-334.4132 149,-324.4133 145.5001,-334.4133 152.5001,-334.4132"/>
</g>
<!-- 3 -->
<g id="node4" class="node">
<title>3</title>
<path fill="none" stroke="#56d8a2" stroke-width="2" d="M102.5,-468C102.5,-468 47.5,-468 47.5,-468 41.5,-468 35.5,-462 35.5,-456 35.5,-456 35.5,-444 35.5,-444 35.5,-438 41.5,-432 47.5,-432 47.5,-432 102.5,-432 102.5,-432 108.5,-432 114.5,-438 114.5,-444 114.5,-444 114.5,-456 114.5,-456 114.5,-462 108.5,-468 102.5,-468"/>
<text text-anchor="middle" x="75" y="-447.5" font-family="sans" font-size="10.00" fill="#000000">sort_sam_PE</text>
</g>
<!-- 3&#45;&gt;2 -->
<g id="edge8" class="edge">
<title>3&#45;&gt;2</title>
<path fill="none" stroke="#c0c0c0" stroke-width="2" d="M93.6733,-431.8314C102.5249,-423.219 113.2486,-412.7851 122.8895,-403.4048"/>
<polygon fill="#c0c0c0" stroke="#c0c0c0" stroke-width="2" points="125.6061,-405.645 130.3326,-396.1628 120.7246,-400.6279 125.6061,-405.645"/>
</g>
<!-- 4 -->
<g id="node5" class="node">
<title>4</title>
<path fill="none" stroke="#56d8c9" stroke-width="2" d="M92,-540C92,-540 18,-540 18,-540 12,-540 6,-534 6,-528 6,-528 6,-516 6,-516 6,-510 12,-504 18,-504 18,-504 92,-504 92,-504 98,-504 104,-510 104,-516 104,-516 104,-528 104,-528 104,-534 98,-540 92,-540"/>
<text text-anchor="middle" x="55" y="-519.5" font-family="sans" font-size="10.00" fill="#000000">map_sncRNA_PE</text>
</g>
<!-- 4&#45;&gt;0 -->
<g id="edge5" class="edge">
<title>4&#45;&gt;0</title>
<path fill="none" stroke="#c0c0c0" stroke-width="2" d="M43.0658,-503.7554C26.8899,-477.2192 0,-425.903 0,-378 0,-378 0,-378 0,-162 0,-106.6067 53.5143,-62.4509 91.0672,-38.2846"/>
<polygon fill="#c0c0c0" stroke="#c0c0c0" stroke-width="2" points="93.1249,-41.1261 99.7553,-32.8624 89.4188,-35.1877 93.1249,-41.1261"/>
</g>
<!-- 4&#45;&gt;3 -->
<g id="edge10" class="edge">
<title>4&#45;&gt;3</title>
<path fill="none" stroke="#c0c0c0" stroke-width="2" d="M60.0468,-503.8314C62.2094,-496.0463 64.7853,-486.7729 67.1848,-478.1347"/>
<polygon fill="#c0c0c0" stroke="#c0c0c0" stroke-width="2" points="70.581,-478.9852 69.8852,-468.4133 63.8364,-477.1117 70.581,-478.9852"/>
</g>
<!-- 5 -->
<g id="node6" class="node">
<title>5</title>
<path fill="none" stroke="#78d856" stroke-width="2" d="M87,-612C87,-612 23,-612 23,-612 17,-612 11,-606 11,-600 11,-600 11,-588 11,-588 11,-582 17,-576 23,-576 23,-576 87,-576 87,-576 93,-576 99,-582 99,-588 99,-588 99,-600 99,-600 99,-606 93,-612 87,-612"/>
<text text-anchor="middle" x="55" y="-597" font-family="sans" font-size="10.00" fill="#000000">trim_PE</text>
<text text-anchor="middle" x="55" y="-586" font-family="sans" font-size="10.00" fill="#000000">sample: HL&#45;A1</text>
</g>
<!-- 5&#45;&gt;4 -->
<g id="edge11" class="edge">
<title>5&#45;&gt;4</title>
<path fill="none" stroke="#c0c0c0" stroke-width="2" d="M55,-575.8314C55,-568.131 55,-558.9743 55,-550.4166"/>
<polygon fill="#c0c0c0" stroke="#c0c0c0" stroke-width="2" points="58.5001,-550.4132 55,-540.4133 51.5001,-550.4133 58.5001,-550.4132"/>
</g>
<!-- 6 -->
<g id="node7" class="node">
<title>6</title>
<path fill="none" stroke="#d8c356" stroke-width="2" d="M202.5,-468C202.5,-468 147.5,-468 147.5,-468 141.5,-468 135.5,-462 135.5,-456 135.5,-456 135.5,-444 135.5,-444 135.5,-438 141.5,-432 147.5,-432 147.5,-432 202.5,-432 202.5,-432 208.5,-432 214.5,-438 214.5,-444 214.5,-444 214.5,-456 214.5,-456 214.5,-462 208.5,-468 202.5,-468"/>
<text text-anchor="middle" x="175" y="-447.5" font-family="sans" font-size="10.00" fill="#000000">sort_sam_SE</text>
</g>
<!-- 6&#45;&gt;2 -->
<g id="edge9" class="edge">
<title>6&#45;&gt;2</title>
<path fill="none" stroke="#c0c0c0" stroke-width="2" d="M168.4391,-431.8314C165.5973,-423.9617 162.2063,-414.5712 159.0581,-405.8533"/>
<polygon fill="#c0c0c0" stroke="#c0c0c0" stroke-width="2" points="162.3377,-404.63 155.6492,-396.4133 155.7538,-407.0076 162.3377,-404.63"/>
</g>
<!-- 7 -->
<g id="node8" class="node">
<title>7</title>
<path fill="none" stroke="#c6d856" stroke-width="2" d="M232,-540C232,-540 158,-540 158,-540 152,-540 146,-534 146,-528 146,-528 146,-516 146,-516 146,-510 152,-504 158,-504 158,-504 232,-504 232,-504 238,-504 244,-510 244,-516 244,-516 244,-528 244,-528 244,-534 238,-540 232,-540"/>
<text text-anchor="middle" x="195" y="-519.5" font-family="sans" font-size="10.00" fill="#000000">map_sncRNA_SE</text>
</g>
<!-- 7&#45;&gt;0 -->
<g id="edge6" class="edge">
<title>7&#45;&gt;0</title>
<path fill="none" stroke="#c0c0c0" stroke-width="2" d="M244.0444,-508.9233C327.9289,-485.0984 490,-432.0705 490,-378 490,-378 490,-378 490,-162 490,-121.1184 500.6544,-100.1412 471,-72 427.4067,-30.6311 244.0297,-20.9485 164.291,-18.687"/>
<polygon fill="#c0c0c0" stroke="#c0c0c0" stroke-width="2" points="164.2869,-15.1858 154.1994,-18.4251 164.1052,-22.1835 164.2869,-15.1858"/>
</g>
<!-- 7&#45;&gt;6 -->
<g id="edge12" class="edge">
<title>7&#45;&gt;6</title>
<path fill="none" stroke="#c0c0c0" stroke-width="2" d="M189.9532,-503.8314C187.7906,-496.0463 185.2147,-486.7729 182.8152,-478.1347"/>
<polygon fill="#c0c0c0" stroke="#c0c0c0" stroke-width="2" points="186.1636,-477.1117 180.1148,-468.4133 179.419,-478.9852 186.1636,-477.1117"/>
</g>
<!-- 8 -->
<g id="node9" class="node">
<title>8</title>
<path fill="none" stroke="#56d87b" stroke-width="2" d="M227,-612C227,-612 163,-612 163,-612 157,-612 151,-606 151,-600 151,-600 151,-588 151,-588 151,-582 157,-576 163,-576 163,-576 227,-576 227,-576 233,-576 239,-582 239,-588 239,-588 239,-600 239,-600 239,-606 233,-612 227,-612"/>
<text text-anchor="middle" x="195" y="-597" font-family="sans" font-size="10.00" fill="#000000">trim_SE</text>
<text text-anchor="middle" x="195" y="-586" font-family="sans" font-size="10.00" fill="#000000">sample: HL&#45;A1</text>
</g>
<!-- 8&#45;&gt;7 -->
<g id="edge13" class="edge">
<title>8&#45;&gt;7</title>
<path fill="none" stroke="#c0c0c0" stroke-width="2" d="M195,-575.8314C195,-568.131 195,-558.9743 195,-550.4166"/>
<polygon fill="#c0c0c0" stroke="#c0c0c0" stroke-width="2" points="198.5001,-550.4132 195,-540.4133 191.5001,-550.4133 198.5001,-550.4132"/>
</g>
<!-- 9&#45;&gt;0 -->
<g id="edge2" class="edge">
<title>9&#45;&gt;0</title>
<path fill="none" stroke="#c0c0c0" stroke-width="2" d="M123.4948,-143.9627C112.5247,-134.6284 100.8855,-122.2089 95,-108 86.3534,-87.1252 95.9752,-62.9768 106.8688,-44.9525"/>
<polygon fill="#c0c0c0" stroke="#c0c0c0" stroke-width="2" points="110.0832,-46.4286 112.5914,-36.1349 104.2114,-42.6178 110.0832,-46.4286"/>
</g>
<!-- 13 -->
<g id="node14" class="node">
<title>13</title>
<path fill="none" stroke="#d85656" stroke-width="2" d="M242,-108C242,-108 116,-108 116,-108 110,-108 104,-102 104,-96 104,-96 104,-84 104,-84 104,-78 110,-72 116,-72 116,-72 242,-72 242,-72 248,-72 254,-78 254,-84 254,-84 254,-96 254,-96 254,-102 248,-108 242,-108"/>
<text text-anchor="middle" x="179" y="-87.5" font-family="sans" font-size="10.00" fill="#000000">calculate_methylation_rate</text>
</g>
<!-- 9&#45;&gt;13 -->
<g id="edge18" class="edge">
<title>9&#45;&gt;13</title>
<path fill="none" stroke="#c0c0c0" stroke-width="2" d="M156.5703,-143.8314C159.8493,-135.9617 163.762,-126.5712 167.3945,-117.8533"/>
<polygon fill="#c0c0c0" stroke="#c0c0c0" stroke-width="2" points="170.7124,-118.9902 171.3278,-108.4133 164.2508,-116.2979 170.7124,-118.9902"/>
</g>
<!-- 10 -->
<g id="node11" class="node">
<title>10</title>
<path fill="none" stroke="#59d856" stroke-width="2" d="M450,-108C450,-108 284,-108 284,-108 278,-108 272,-102 272,-96 272,-96 272,-84 272,-84 272,-78 278,-72 284,-72 284,-72 450,-72 450,-72 456,-72 462,-78 462,-84 462,-84 462,-96 462,-96 462,-102 456,-108 450,-108"/>
<text text-anchor="middle" x="367" y="-87.5" font-family="sans" font-size="10.00" fill="#000000">calculate_methylation_rate_filtered</text>
</g>
<!-- 10&#45;&gt;0 -->
<g id="edge3" class="edge">
<title>10&#45;&gt;0</title>
<path fill="none" stroke="#c0c0c0" stroke-width="2" d="M306.7477,-71.9243C261.7534,-58.426 201.7132,-40.414 163.6949,-29.0085"/>
<polygon fill="#c0c0c0" stroke="#c0c0c0" stroke-width="2" points="164.6408,-25.6382 154.0568,-26.117 162.6293,-32.343 164.6408,-25.6382"/>
</g>
<!-- 11 -->
<g id="node12" class="node">
<title>11</title>
<path fill="none" stroke="#d87d56" stroke-width="2" d="M398.5,-180C398.5,-180 269.5,-180 269.5,-180 263.5,-180 257.5,-174 257.5,-168 257.5,-168 257.5,-156 257.5,-156 257.5,-150 263.5,-144 269.5,-144 269.5,-144 398.5,-144 398.5,-144 404.5,-144 410.5,-150 410.5,-156 410.5,-156 410.5,-168 410.5,-168 410.5,-174 404.5,-180 398.5,-180"/>
<text text-anchor="middle" x="334" y="-159.5" font-family="sans" font-size="10.00" fill="#000000">hisat_table_filtered_sncRNA</text>
</g>
<!-- 11&#45;&gt;10 -->
<g id="edge15" class="edge">
<title>11&#45;&gt;10</title>
<path fill="none" stroke="#c0c0c0" stroke-width="2" d="M342.3273,-143.8314C345.973,-135.8771 350.3309,-126.369 354.3627,-117.5723"/>
<polygon fill="#c0c0c0" stroke="#c0c0c0" stroke-width="2" points="357.5757,-118.9622 358.5606,-108.4133 351.2123,-116.0456 357.5757,-118.9622"/>
</g>
<!-- 12&#45;&gt;11 -->
<g id="edge16" class="edge">
<title>12&#45;&gt;11</title>
<path fill="none" stroke="#c0c0c0" stroke-width="2" d="M292.8788,-215.8314C299.2136,-207.5386 306.8384,-197.557 313.7926,-188.4533"/>
<polygon fill="#c0c0c0" stroke="#c0c0c0" stroke-width="2" points="316.6452,-190.4847 319.9343,-180.4133 311.0825,-186.2353 316.6452,-190.4847"/>
</g>
<!-- 13&#45;&gt;0 -->
<g id="edge4" class="edge">
<title>13&#45;&gt;0</title>
<path fill="none" stroke="#c0c0c0" stroke-width="2" d="M165.8782,-71.8314C159.9501,-63.6232 152.8271,-53.7606 146.3067,-44.7323"/>
<polygon fill="#c0c0c0" stroke="#c0c0c0" stroke-width="2" points="148.9908,-42.4708 140.2985,-36.4133 143.316,-46.5693 148.9908,-42.4708"/>
</g>
</g>
</svg>
